<svg width="47" height="66" viewBox="0 0 47 66" fill="none" xmlns="http://www.w3.org/2000/svg">
<path d="M29.3844 9.41384C32.3214 9.57589 34.2157 10.0179 36.066 10.725C38.4743 11.6531 40.2952 12.979 41.5875 14.7027C42.8798 16.4263 43.3644 18.8277 43.5259 21.3027L29.3844 9.41384ZM29.3844 9.41384V1.18032V9.41384ZM40.7211 28.8897C40.3592 29.2295 39.9709 29.5387 39.5603 29.8145C39.2309 29.7112 38.8978 29.619 38.5616 29.5381L38.3275 30.5103L38.7499 31.4166C39.0746 31.2653 39.3905 31.0971 39.6965 30.9128C40.513 31.1975 41.3033 31.5557 42.0574 31.9835C44.3189 33.2357 45.4496 34.7237 46.1839 36.4179C46.8447 37.9205 47.0796 40.6754 46.9768 42.8116L40.7211 28.8897ZM40.7211 28.8897C41.7607 27.9574 42.5487 26.7767 43.0119 25.4571L40.7211 28.8897ZM17.7966 34.3571H18.7966H23.4958C24.4785 34.3571 27.787 34.5044 28.9704 34.5583C28.9718 34.5584 28.9733 34.5585 28.9747 34.5585L28.9292 35.5575C29.4165 35.5753 29.899 35.6616 30.3624 35.8138L17.7966 34.3571ZM17.7966 34.3571V35.3571V48.6161V49.6161H18.7966H23.4851L23.4892 49.6161L23.5324 49.6168C23.5692 49.6173 23.6219 49.6178 23.6891 49.6177C23.8235 49.6177 24.0163 49.6158 24.257 49.6086C24.7377 49.5942 25.4127 49.5583 26.1972 49.4724C27.7516 49.3022 29.7996 48.9293 31.6241 48.0972C33.0311 47.4566 34.3809 46.5069 35.2284 45.0923C35.8795 44.0793 36.1115 42.9256 36.1115 41.6625L36.1115 41.6562C36.1076 41.0413 36.0246 40.4295 35.8646 39.8359C35.7142 39.2152 35.4736 38.6199 35.1505 38.0692C35.0282 37.8516 34.8937 37.6411 34.7478 37.4387L34.7421 37.4308L34.7362 37.423C34.3816 36.951 33.9499 36.5424 33.4594 36.2146M17.7966 34.3571L33.4594 36.2146M33.4594 36.2146C32.7729 35.7206 32.0153 35.3346 31.2126 35.07L33.4594 36.2146ZM45.2663 36.8155L45.2685 36.8204C45.5388 37.4351 45.7487 38.3825 45.873 39.4888C45.9952 40.5766 46.0268 41.7445 45.9782 42.76C45.8493 45.0927 45.235 47.9541 43.8626 49.7465C42.4376 51.6077 40.4295 53.0527 37.742 54.0585L37.7397 54.0594C35.6836 54.8346 33.0795 55.3252 29.3196 55.5138L28.3697 55.5614V56.5125V65H24.4958V56.5714V55.5714H23.4958H18.7966H17.7966V56.5714V65H13.7758V56.5714V55.5714H12.7758H1.96306L5.64886 50.5003C5.97853 50.5 6.22822 50.4963 6.42431 50.4765C6.80817 50.4377 7.04547 50.3346 7.29989 50.2194C8.05619 49.8767 8.34345 49.2397 8.48332 48.9295C8.50151 48.8892 8.51721 48.8543 8.53113 48.8264C8.71034 48.4668 8.79335 48.0073 8.8415 47.559C8.89275 47.0819 8.91513 46.4973 8.91513 45.817V20.3009C8.91513 19.6135 8.89277 19.0218 8.8416 18.5413C8.79413 18.0956 8.71154 17.6245 8.52396 17.2626L8.52172 17.2583C8.21202 16.6678 7.71148 16.1998 7.10171 15.9311C6.74091 15.7566 6.29883 15.6574 5.84034 15.5964C5.50167 15.5513 5.11784 15.5226 4.69237 15.5091L1.73822 10.4286H12.7905H13.7905V9.42857V1.71027L17.8113 3.9731V9.42857V10.4286H18.8113H23.5104H24.5104V9.42857V4.23634L28.3844 1.80733V9.41384V10.3602L29.3293 10.4123C32.1737 10.5693 33.9647 10.9926 35.7074 11.6585C37.9697 12.5305 39.6256 13.7529 40.7874 15.3025C41.8985 16.7846 42.3693 18.9392 42.5279 21.3657C42.6065 22.6418 42.449 23.9214 42.0635 25.1398C41.6553 26.2952 40.964 27.3287 40.0534 28.1453L40.0449 28.1529L40.0366 28.1607C39.4067 28.7522 38.6871 29.2393 37.905 29.6039L35.3117 30.8127L38.0934 31.4825C39.3082 31.775 40.4764 32.2364 41.564 32.8533L41.564 32.8533L41.573 32.8583C43.628 33.9962 44.6136 35.3093 45.2663 36.8155ZM17.7981 16.3839H17.7966V17.3839V28.2857V29.2857H17.7981V29.7719H18.7981H22.8936L22.9182 29.7723C22.941 29.7726 22.9734 29.773 23.0146 29.7732C23.097 29.7736 23.215 29.7732 23.3636 29.7705C23.6604 29.7649 24.0806 29.7495 24.583 29.7106C25.5827 29.6332 26.9327 29.4607 28.2933 29.0744C29.6429 28.6913 31.0799 28.0766 32.1849 27.0669C33.3221 26.0277 34.078 24.5924 34.0392 22.7024C34.0028 20.9034 33.4168 19.5219 32.4509 18.5077C31.5048 17.5143 30.2679 16.95 29.0481 16.6242C27.0414 16.0883 24.8167 16.1442 23.5343 16.1764C23.2861 16.1826 23.0732 16.188 22.904 16.188H18.7981H17.7981V16.3839Z" fill="#FF8832" stroke="black" stroke-width="2"/>
</svg>
